<svg height="512" viewBox="0 0 64 64" width="512" xmlns="http://www.w3.org/2000/svg"><g id="Programmer-2" data-name="Programmer"><path d="m44 36h-6v-2h13a3 3 0 0 0 3-3v-26a3 3 0 0 0 -3-3h-38a3 3 0 0 0 -3 3v26a3 3 0 0 0 3 3h13v2h-6a13.015 13.015 0 0 0 -13 13v12a1 1 0 0 0 1 1h48a1 1 0 0 0 1-1v-12a13.015 13.015 0 0 0 -13-13zm-5.03 9.243 1.811-7.243h.99l-4.584 22h-.319l-1.824-12.763 1.414-2.122.954.694a1 1 0 0 0 1.558-.566zm-5.5.757h-2.93l-1.38-2.062 2.84-2.065 2.84 2.065zm-2.6 2h2.266l1.714 12h-5.697zm6.523-4.681-3.693-2.683 3.625-2.636h1.394zm-24.393-39.319h38a1 1 0 0 1 1 1v3h-40v-3a1 1 0 0 1 1-1zm-1 27v-21h40v21a1 1 0 0 1 -1 1h-38a1 1 0 0 1 -1-1zm24 3v2.491l-4 2.909-4-2.909v-2.491zm-9.325 4 3.625 2.636-3.69 2.683-1.329-5.319zm-1.645 7.243a1 1 0 0 0 1.558.566l.954-.694 1.414 2.122-1.824 12.763h-.319l-4.584-22h.99zm-16.03 3.757a11.013 11.013 0 0 1 11-11h.187l4.584 22h-5.771v-12a1 1 0 0 0 -2 0v12h-8zm46 11h-8v-11a1 1 0 0 0 -2 0v11h-5.771l4.584-22h.187a11.013 11.013 0 0 1 11 11z"/><path d="m17 14a1 1 0 0 0 -1 1v14a1 1 0 0 0 2 0v-14a1 1 0 0 0 -1-1z"/><path d="m20.445 16.832 3 2a1 1 0 1 0 1.11-1.664l-1.755-1.168 1.752-1.168a1 1 0 1 0 -1.11-1.664l-3 2a1 1 0 0 0 0 1.664z"/><path d="m31.168 18.555a1 1 0 0 0 1.387.277l3-2a1 1 0 0 0 0-1.664l-3-2a1 1 0 0 0 -1.11 1.664l1.755 1.168-1.752 1.168a1 1 0 0 0 -.28 1.387z"/><path d="m26.684 19.949a1 1 0 0 0 1.264-.633l2-6a1 1 0 1 0 -1.9-.632l-2 6a1 1 0 0 0 .636 1.265z"/><path d="m20 22h6v2h-6z"/><path d="m28 22h2v2h-2z"/><path d="m23 25h12v2h-12z"/><path d="m41 25h7v2h-7z"/><path d="m23 28h2v2h-2z"/><path d="m27 28h12v2h-12z"/><path d="m41 28h4v2h-4z"/><path d="m37 25h2v2h-2z"/><path d="m14 5h2v2h-2z"/><path d="m18 5h2v2h-2z"/><path d="m22 5h2v2h-2z"/></g></svg>