<svg id="Icons" height="512" viewBox="0 0 74 74" width="512" xmlns="http://www.w3.org/2000/svg"><path d="m42.24 63h-2.97a1 1 0 0 1 0-2h2.97a1 1 0 1 1 0 2z"/><path d="m69 63h-19.76a1 1 0 0 1 0-2h19.76a1 1 0 0 0 1-1v-40a1 1 0 0 0 -1-1h-44.26a2.991 2.991 0 0 1 -1.953-.722l-5.878-5.039a.991.991 0 0 0 -.649-.239h-11.26a1 1 0 0 0 -1 1v46a1 1 0 0 0 1 1h17.37a1 1 0 1 1 0 2h-17.37a3 3 0 0 1 -3-3v-46a3 3 0 0 1 3-3h11.26a2.991 2.991 0 0 1 1.953.722l5.878 5.039a.991.991 0 0 0 .649.239h44.26a3 3 0 0 1 3 3v40a3 3 0 0 1 -3 3z"/><path d="m32.27 63h-2.9a1 1 0 0 1 0-2h2.9a1 1 0 1 1 0 2z"/><path d="m44.3 46.7a1 1 0 0 1 -.709-1.7l4.995-5-4.995-4.995a1 1 0 0 1 1.414-1.414l5.7 5.7a1 1 0 0 1 0 1.414l-5.7 5.7a1 1 0 0 1 -.705.295z"/><path d="m29.7 46.7a1 1 0 0 1 -.7-.291l-5.7-5.7a1 1 0 0 1 0-1.414l5.7-5.7a1 1 0 0 1 1.414 1.414l-5 4.991 4.995 5a1 1 0 0 1 -.709 1.7z"/><path d="m33.828 52.582a.968.968 0 0 1 -.265-.037 1 1 0 0 1 -.7-1.228l6.345-23.162a1 1 0 0 1 1.929.528l-6.345 23.162a1 1 0 0 1 -.964.737z"/></svg>